<?xml version="1.0" encoding="UTF-8" standalone="no"?>
<!-- Created with Inkscape (http://www.inkscape.org/) -->

<svg
   xmlns:dc="http://purl.org/dc/elements/1.1/"
   xmlns:cc="http://creativecommons.org/ns#"
   xmlns:rdf="http://www.w3.org/1999/02/22-rdf-syntax-ns#"
   xmlns:svg="http://www.w3.org/2000/svg"
   xmlns="http://www.w3.org/2000/svg"
   xmlns:sodipodi="http://sodipodi.sourceforge.net/DTD/sodipodi-0.dtd"
   xmlns:inkscape="http://www.inkscape.org/namespaces/inkscape"
   width="1620"
   height="2160"
   id="svg2"
   version="1.1"
   inkscape:version="0.48.4 r9939"
   sodipodi:docname="web-gfx-init.svg"
   inkscape:export-filename="/home/mmorsi/workspace/omega-blog/source/images/web-gfx-init.png"
   inkscape:export-xdpi="90"
   inkscape:export-ydpi="90">
  <defs
     id="defs4" />
  <sodipodi:namedview
     id="base"
     pagecolor="#ffffff"
     bordercolor="#666666"
     borderopacity="1.0"
     inkscape:pageopacity="0.0"
     inkscape:pageshadow="2"
     inkscape:zoom="0.35"
     inkscape:cx="1054.5443"
     inkscape:cy="1146.2661"
     inkscape:document-units="px"
     inkscape:current-layer="layer1"
     showgrid="false"
     inkscape:window-width="1920"
     inkscape:window-height="1032"
     inkscape:window-x="0"
     inkscape:window-y="26"
     inkscape:window-maximized="1" />
  <metadata
     id="metadata7">
    <rdf:RDF>
      <cc:Work
         rdf:about="">
        <dc:format>image/svg+xml</dc:format>
        <dc:type
           rdf:resource="http://purl.org/dc/dcmitype/StillImage" />
        <dc:title></dc:title>
      </cc:Work>
    </rdf:RDF>
  </metadata>
  <g
     inkscape:label="Layer 1"
     inkscape:groupmode="layer"
     id="layer1"
     transform="translate(0,1107.6378)">
    <rect
       ry="9.9840984"
       y="-836.69214"
       x="719.51697"
       height="69.537491"
       width="186.68033"
       id="rect3073"
       style="fill:#ff9955;fill-opacity:1;stroke:#005500;stroke-width:1.03394723;stroke-miterlimit:4;stroke-dasharray:none;stroke-dashoffset:0" />
    <rect
       style="fill:#ff9955;fill-opacity:1;stroke:#005500;stroke-width:2.19170499;stroke-miterlimit:4;stroke-dasharray:none;stroke-dashoffset:0"
       id="rect3075"
       width="511.23685"
       height="114.09402"
       x="562.95294"
       y="-701.82758"
       ry="16.381464" />
    <rect
       ry="13.24087"
       y="-533.74786"
       x="713.88983"
       height="92.220345"
       width="192.22032"
       id="rect3077"
       style="fill:#ff9955;fill-opacity:1;stroke:#005500;stroke-width:1.20823824;stroke-miterlimit:4;stroke-dasharray:none;stroke-dashoffset:0" />
    <rect
       style="fill:#ff9955;fill-opacity:1;stroke:#005500;stroke-width:2.15018845;stroke-miterlimit:4;stroke-dasharray:none;stroke-dashoffset:0"
       id="rect3079"
       width="468.42123"
       height="119.84982"
       x="1111.5035"
       y="-544.70544"
       ry="17.207874" />
    <rect
       ry="13.182088"
       y="-364.97171"
       x="634.09448"
       height="91.810928"
       width="346.09662"
       id="rect3081"
       style="fill:#ff9955;fill-opacity:1;stroke:#005500;stroke-width:1.61765325;stroke-miterlimit:4;stroke-dasharray:none;stroke-dashoffset:0" />
    <rect
       style="fill:#ff9955;fill-opacity:1;stroke:#005500;stroke-width:1.52934098;stroke-miterlimit:4;stroke-dasharray:none;stroke-dashoffset:0"
       id="rect3083"
       width="309.04208"
       height="91.899239"
       x="651.19318"
       y="-216.44446"
       ry="13.194767" />
    <rect
       ry="13.124866"
       y="-53.343884"
       x="537.15088"
       height="91.412384"
       width="539.98383"
       id="rect3085"
       style="fill:#ff9955;fill-opacity:1;stroke:#005500;stroke-width:2.01619458;stroke-miterlimit:4;stroke-dasharray:none;stroke-dashoffset:0" />
    <rect
       style="fill:#ff9955;fill-opacity:1;stroke:#005500;stroke-width:1.59771693;stroke-miterlimit:4;stroke-dasharray:none;stroke-dashoffset:0"
       id="rect3087"
       width="337.54514"
       height="91.830864"
       x="636.94159"
       y="97.87545"
       ry="13.18495" />
    <rect
       ry="13.155237"
       y="257.97894"
       x="231.33081"
       height="91.623917"
       width="431.6239"
       id="rect3089"
       style="fill:#ff9955;fill-opacity:1;stroke:#005500;stroke-width:1.80466557;stroke-miterlimit:4;stroke-dasharray:none;stroke-dashoffset:0" />
    <rect
       style="fill:#ff9955;fill-opacity:1;stroke:#005500;stroke-width:2.04753995;stroke-miterlimit:4;stroke-dasharray:none;stroke-dashoffset:0"
       id="rect3091"
       width="557.09534"
       height="91.381042"
       x="914.30939"
       y="263.81467"
       ry="13.120365" />
    <rect
       ry="11.169721"
       y="426.3219"
       x="668.24518"
       height="77.795143"
       width="283.5094"
       id="rect3093"
       style="fill:#ff9955;fill-opacity:1;stroke:#005500;stroke-width:1.34771967;stroke-miterlimit:4;stroke-dasharray:none;stroke-dashoffset:0" />
    <rect
       ry="13.259795"
       y="577.61481"
       x="730.96674"
       height="92.35215"
       width="152.35213"
       id="rect3095"
       style="fill:#ff9955;fill-opacity:1;stroke:#005500;stroke-width:1.07643378;stroke-miterlimit:4;stroke-dasharray:none;stroke-dashoffset:0" />
    <rect
       style="fill:#ff9955;fill-opacity:1;stroke:#005500;stroke-width:3.01106882;stroke-miterlimit:4;stroke-dasharray:none;stroke-dashoffset:0"
       id="rect3097"
       width="530.41748"
       height="207.56038"
       x="69.076912"
       y="535.72498"
       ry="29.801233" />
    <rect
       ry="13.246058"
       y="754.80554"
       x="513.87177"
       height="277.97076"
       width="586.54218"
       id="rect3099"
       style="fill:#f2f2f2;fill-opacity:1;stroke:#000000;stroke-width:1.17211616;stroke-miterlimit:4;stroke-dasharray:none;stroke-dashoffset:0" />
    <rect
       style="fill:#ff9955;fill-opacity:1;stroke:#005500;stroke-width:1.03565133;stroke-miterlimit:4;stroke-dasharray:none;stroke-dashoffset:0"
       id="rect3071"
       width="140.96434"
       height="92.392929"
       x="739.51776"
       y="-1002.4056"
       ry="13.265651" />
    <text
       xml:space="preserve"
       style="font-size:40px;font-style:normal;font-variant:normal;font-weight:normal;font-stretch:normal;text-align:center;line-height:125%;letter-spacing:0px;word-spacing:0px;text-anchor:middle;fill:#005500;fill-opacity:1;stroke:#005500;font-family:Noto Sans Tai Viet;-inkscape-font-specification:Noto Sans Tai Viet"
       x="809.16992"
       y="-944.78064"
       id="text2985"
       sodipodi:linespacing="125%"><tspan
         sodipodi:role="line"
         id="tspan2987"
         x="809.16992"
         y="-944.78064">Start</tspan></text>
    <text
       xml:space="preserve"
       style="font-size:40px;font-style:normal;font-variant:normal;font-weight:normal;font-stretch:normal;text-align:center;line-height:125%;letter-spacing:0px;word-spacing:0px;text-anchor:middle;fill:#005500;fill-opacity:1;stroke:#005500;font-family:Noto Sans Tai Viet;-inkscape-font-specification:Noto Sans Tai Viet"
       x="808.52539"
       y="-789.89642"
       id="text2989"
       sodipodi:linespacing="125%"><tspan
         sodipodi:role="line"
         id="tspan2991"
         x="808.52539"
         y="-789.89642">Page Init</tspan></text>
    <text
       xml:space="preserve"
       style="font-size:40px;font-style:normal;font-variant:normal;font-weight:normal;font-stretch:normal;text-align:center;line-height:125%;letter-spacing:0px;word-spacing:0px;text-anchor:middle;fill:#005500;fill-opacity:1;stroke:none;font-family:Noto Sans Tai Viet;-inkscape-font-specification:Noto Sans Tai Viet"
       x="809.86328"
       y="-656.48694"
       id="text2993"
       sodipodi:linespacing="125%"><tspan
         sodipodi:role="line"
         id="tspan2995"
         x="809.86328"
         y="-656.48694">Create template entities</tspan><tspan
         sodipodi:role="line"
         x="809.86328"
         y="-606.48694"
         id="tspan2997">of * types</tspan></text>
    <text
       xml:space="preserve"
       style="font-size:40px;font-style:normal;font-variant:normal;font-weight:normal;font-stretch:normal;line-height:125%;letter-spacing:0px;word-spacing:0px;fill:#005500;fill-opacity:1;stroke:none;font-family:Noto Sans Tai Viet;-inkscape-font-specification:Noto Sans Tai Viet"
       x="724.47266"
       y="-473.63388"
       id="text2999"
       sodipodi:linespacing="125%"><tspan
         sodipodi:role="line"
         id="tspan3001"
         x="724.47266"
         y="-473.63388">load_gfx</tspan></text>
    <text
       xml:space="preserve"
       style="font-size:40px;font-style:normal;font-variant:normal;font-weight:normal;font-stretch:normal;line-height:125%;letter-spacing:0px;word-spacing:0px;fill:#005500;fill-opacity:1;stroke:none;font-family:Noto Sans Tai Viet;-inkscape-font-specification:Noto Sans Tai Viet"
       x="646.79688"
       y="-311.14215"
       id="text3003"
       sodipodi:linespacing="125%"><tspan
         sodipodi:role="line"
         id="tspan3005"
         x="646.79688"
         y="-311.14215">create 3D scene</tspan></text>
    <text
       xml:space="preserve"
       style="font-size:40px;font-style:normal;font-variant:normal;font-weight:normal;font-stretch:normal;line-height:125%;letter-spacing:0px;word-spacing:0px;fill:#005500;fill-opacity:1;stroke:none;font-family:Noto Sans Tai Viet;-inkscape-font-specification:Noto Sans Tai Viet"
       x="663.13477"
       y="-156.25798"
       id="text3007"
       sodipodi:linespacing="125%"><tspan
         sodipodi:role="line"
         id="tspan3009"
         x="663.13477"
         y="-156.25798">Attach to page</tspan></text>
    <text
       xml:space="preserve"
       style="font-size:40px;font-style:normal;font-variant:normal;font-weight:normal;font-stretch:normal;text-align:center;line-height:125%;letter-spacing:0px;word-spacing:0px;text-anchor:middle;fill:#005500;fill-opacity:1;stroke:none;font-family:Noto Sans Tai Viet;-inkscape-font-specification:Noto Sans Tai Viet"
       x="1338.3063"
       y="-496.2092"
       id="text3011"
       sodipodi:linespacing="125%"><tspan
         sodipodi:role="line"
         id="tspan3013"
         x="1338.3063"
         y="-496.2092">create/store template</tspan><tspan
         sodipodi:role="line"
         x="1338.3063"
         y="-446.2092"
         id="tspan3015">components in db</tspan></text>
    <text
       xml:space="preserve"
       style="font-size:40px;font-style:normal;font-variant:normal;font-weight:normal;font-stretch:normal;line-height:125%;letter-spacing:0px;word-spacing:0px;fill:#0088aa;fill-opacity:1;stroke:none;font-family:Noto Sans Tai Viet;-inkscape-font-specification:Noto Sans Tai Viet"
       x="551.78711"
       y="2.1515064"
       id="text3017"
       sodipodi:linespacing="125%"><tspan
         sodipodi:role="line"
         id="tspan3019"
         x="551.78711"
         y="2.1515064">user clicks system/galaxy</tspan></text>
    <text
       xml:space="preserve"
       style="font-size:40px;font-style:normal;font-variant:normal;font-weight:normal;font-stretch:normal;line-height:125%;letter-spacing:0px;word-spacing:0px;fill:#165016;fill-opacity:1;stroke:none;font-family:Noto Sans Tai Viet;-inkscape-font-specification:Noto Sans Tai Viet"
       x="659.95117"
       y="158.85219"
       id="text3021"
       sodipodi:linespacing="125%"><tspan
         sodipodi:role="line"
         id="tspan3023"
         x="659.95117"
         y="158.85219">set_scene_root</tspan></text>
    <text
       xml:space="preserve"
       style="font-size:40px;font-style:normal;font-variant:normal;font-weight:normal;font-stretch:normal;line-height:125%;letter-spacing:0px;word-spacing:0px;fill:#165016;fill-opacity:1;stroke:none;font-family:Noto Sans Tai Viet;-inkscape-font-specification:Noto Sans Tai Viet"
       x="248.33147"
       y="322.84766"
       id="text3025"
       sodipodi:linespacing="125%"><tspan
         sodipodi:role="line"
         id="tspan3027"
         x="248.33147"
         y="322.84766">iterate over children</tspan></text>
    <text
       xml:space="preserve"
       style="font-size:40px;font-style:normal;font-variant:normal;font-weight:normal;font-stretch:normal;line-height:125%;letter-spacing:0px;word-spacing:0px;fill:#165016;fill-opacity:1;stroke:none;font-family:Noto Sans Tai Viet;-inkscape-font-specification:Noto Sans Tai Viet"
       x="928.33148"
       y="318.9707"
       id="text3029"
       sodipodi:linespacing="125%"><tspan
         sodipodi:role="line"
         id="tspan3031"
         x="928.33148"
         y="318.9707">retrieve updatable entities</tspan></text>
    <text
       xml:space="preserve"
       style="font-size:40px;font-style:normal;font-variant:normal;font-weight:normal;font-stretch:normal;line-height:125%;letter-spacing:0px;word-spacing:0px;fill:#165016;fill-opacity:1;stroke:none;font-family:Noto Sans Tai Viet;-inkscape-font-specification:Noto Sans Tai Viet"
       x="680.64453"
       y="481.25735"
       id="text3033"
       sodipodi:linespacing="125%"><tspan
         sodipodi:role="line"
         id="tspan3035"
         x="680.64453"
         y="481.25735">add to scene</tspan></text>
    <text
       xml:space="preserve"
       style="font-size:40px;font-style:normal;font-variant:normal;font-weight:normal;font-stretch:normal;line-height:125%;letter-spacing:0px;word-spacing:0px;fill:#165016;fill-opacity:1;stroke:none;font-family:Noto Sans Tai Viet;-inkscape-font-specification:Noto Sans Tai Viet"
       x="735.56641"
       y="635.23334"
       id="text3037"
       sodipodi:linespacing="125%"><tspan
         sodipodi:role="line"
         id="tspan3039"
         x="735.56641"
         y="635.23334">init_gfx</tspan></text>
    <rect
       style="fill:#f2f2f2;fill-opacity:1;stroke:#000000;stroke-width:0.96056473;stroke-miterlimit:4;stroke-dasharray:none;stroke-dashoffset:0"
       id="rect3133"
       width="529.6109"
       height="206.75374"
       x="548.0517"
       y="808.98553"
       ry="9.8523741" />
    <text
       xml:space="preserve"
       style="font-size:40px;font-style:normal;font-variant:normal;font-weight:normal;font-stretch:normal;line-height:125%;letter-spacing:0px;word-spacing:0px;fill:#0088aa;fill-opacity:1;stroke:none;font-family:Noto Sans Tai Viet;-inkscape-font-specification:Noto Sans Tai Viet"
       x="728.125"
       y="798.07654"
       id="text3041"
       sodipodi:linespacing="125%"><tspan
         sodipodi:role="line"
         id="tspan3043"
         x="728.125"
         y="798.07654">browser</tspan></text>
    <text
       xml:space="preserve"
       style="font-size:40px;font-style:normal;font-variant:normal;font-weight:normal;font-stretch:normal;text-align:center;line-height:125%;letter-spacing:0px;word-spacing:0px;text-anchor:middle;fill:#165016;fill-opacity:1;stroke:none;font-family:Noto Sans Tai Viet;-inkscape-font-specification:Noto Sans Tai Viet"
       x="327.7037"
       y="586.64795"
       id="text3045"
       sodipodi:linespacing="125%"><tspan
         sodipodi:role="line"
         id="tspan3047"
         x="327.7037"
         y="586.64795">async callbacks update</tspan><tspan
         sodipodi:role="line"
         x="327.7037"
         y="636.64795"
         id="tspan3049">entity w/ gfx components</tspan><tspan
         sodipodi:role="line"
         x="327.7037"
         y="686.64795"
         id="tspan3051">(if needed)</tspan></text>
    <path
       style="fill:none;stroke:#000000;stroke-width:1px;stroke-linecap:butt;stroke-linejoin:miter;stroke-opacity:1"
       d="m 808.57143,197.14286 0,68.57143"
       id="path3101"
       inkscape:connector-curvature="0"
       transform="translate(0,-1107.6378)" />
    <path
       style="fill:none;stroke:#000000;stroke-width:1px;stroke-linecap:butt;stroke-linejoin:miter;stroke-opacity:1"
       d="m 808.57143,342.85714 0,57.14286"
       id="path3103"
       inkscape:connector-curvature="0"
       transform="translate(0,-1107.6378)" />
    <path
       style="fill:none;stroke:#000000;stroke-width:1px;stroke-linecap:butt;stroke-linejoin:miter;stroke-opacity:1"
       d="m 811.42857,520 0,51.42857"
       id="path3107"
       inkscape:connector-curvature="0"
       transform="translate(0,-1107.6378)" />
    <path
       style="fill:none;stroke:#000000;stroke-width:1px;stroke-linecap:butt;stroke-linejoin:miter;stroke-opacity:1"
       d="m 808.57143,668.57143 0,62.85714"
       id="path3109"
       inkscape:connector-curvature="0"
       transform="translate(0,-1107.6378)" />
    <path
       style="fill:none;stroke:#000000;stroke-width:1px;stroke-linecap:butt;stroke-linejoin:miter;stroke-opacity:1"
       d="m 808.57143,837.14286 0,48.57143"
       id="path3111"
       inkscape:connector-curvature="0"
       transform="translate(0,-1107.6378)" />
    <path
       style="fill:none;stroke:#000000;stroke-width:1px;stroke-linecap:butt;stroke-linejoin:miter;stroke-opacity:1"
       d="m 802.85714,988.57143 0,57.14287"
       id="path3113"
       inkscape:connector-curvature="0"
       transform="translate(0,-1107.6378)" />
    <path
       style="fill:none;stroke:#000000;stroke-width:1px;stroke-linecap:butt;stroke-linejoin:miter;stroke-opacity:1"
       d="m 805.71429,1151.4286 0,51.4285"
       id="path3115"
       inkscape:connector-curvature="0"
       transform="translate(0,-1107.6378)" />
    <path
       style="fill:none;stroke:#000000;stroke-width:1px;stroke-linecap:butt;stroke-linejoin:miter;stroke-opacity:1"
       d="m 794.28571,1302.8571 0,31.4286 -374.28571,0 0,25.7143"
       id="path3117"
       inkscape:connector-curvature="0"
       transform="translate(0,-1107.6378)" />
    <path
       style="fill:none;stroke:#000000;stroke-width:1px;stroke-linecap:butt;stroke-linejoin:miter;stroke-opacity:1"
       d="m 794.28571,1294.2857 0,40 391.42859,0 0,34.2857"
       id="path3119"
       inkscape:connector-curvature="0"
       transform="translate(0,-1107.6378)" />
    <path
       style="fill:none;stroke:#000000;stroke-width:1px;stroke-linecap:butt;stroke-linejoin:miter;stroke-opacity:1"
       d="m 411.42857,1457.1429 0,37.1428 382.85714,0 0,34.2857"
       id="path3121"
       inkscape:connector-curvature="0"
       transform="translate(0,-1107.6378)" />
    <path
       style="fill:none;stroke:#000000;stroke-width:1px;stroke-linecap:butt;stroke-linejoin:miter;stroke-opacity:1"
       d="m 1185.7143,1468.5714 0,25.7143 -397.14287,0"
       id="path3123"
       inkscape:connector-curvature="0"
       transform="translate(0,-1107.6378)" />
    <path
       style="fill:none;stroke:#000000;stroke-width:1px;stroke-linecap:butt;stroke-linejoin:miter;stroke-opacity:1"
       d="m 794.28571,1614.2857 0,68.5714"
       id="path3125"
       inkscape:connector-curvature="0"
       transform="translate(0,-1107.6378)" />
    <path
       style="fill:none;stroke:#000000;stroke-width:1.08965755px;stroke-linecap:butt;stroke-linejoin:miter;stroke-opacity:1"
       d="m 797.14286,675.31298 0,71.24121"
       id="path3127"
       inkscape:connector-curvature="0" />
    <path
       style="fill:none;stroke:#000000;stroke-width:1px;stroke-linecap:butt;stroke-linejoin:miter;stroke-opacity:1"
       d="m 731.42857,1737.1429 -122.85714,0"
       id="path3129"
       inkscape:connector-curvature="0"
       transform="translate(0,-1107.6378)" />
    <path
       style="fill:none;stroke:#000000;stroke-width:1px;stroke-linecap:butt;stroke-linejoin:miter;stroke-opacity:1"
       d="M 914.28571,620 1100,620"
       id="path3131"
       inkscape:connector-curvature="0"
       transform="translate(0,-1107.6378)" />
    <path
       sodipodi:type="arc"
       style="fill:#ffff00;fill-opacity:1;stroke:#000000;stroke-width:2;stroke-miterlimit:4;stroke-dasharray:none;stroke-dashoffset:0"
       id="path3135"
       sodipodi:cx="667.14288"
       sodipodi:cy="1997.1428"
       sodipodi:rx="72.85714"
       sodipodi:ry="74.285713"
       d="m 740.00002,1997.1428 a 72.85714,74.285713 0 1 1 -145.71428,0 72.85714,74.285713 0 1 1 145.71428,0 z"
       transform="translate(0,-1096.2092)" />
    <path
       style="fill:none;stroke:#000000;stroke-width:1px;stroke-linecap:butt;stroke-linejoin:miter;stroke-opacity:1"
       d="m 985.15127,2024.1345 c -2.96076,-1.4804 -0.59082,0.081 -1.01015,-0.7576 -0.0532,-0.1065 -0.1993,-0.1461 -0.25254,-0.2526 -0.0377,-0.075 0.0376,-0.1772 0,-0.2525 -0.5255,-1.051 0.0174,0.27 -0.50508,-0.2525 -0.12627,-0.1263 0.12627,-0.6314 0,-0.7577 -0.0595,-0.059 -0.19301,0.06 -0.25253,0 -0.11905,-0.119 0.0753,-0.3545 0,-0.505 -0.52551,-1.051 0.0174,0.2699 -0.50508,-0.2526 -0.11905,-0.119 0.0753,-0.3545 0,-0.5051 -0.0532,-0.1064 -0.1993,-0.146 -0.25254,-0.2525 -0.0376,-0.075 0.0376,-0.1772 0,-0.2525 -0.5255,-1.051 0.0174,0.2699 -0.50507,-0.2526 -0.12627,-0.1262 0.12626,-0.6313 0,-0.7576 -0.0595,-0.059 -0.19302,0.06 -0.25254,0 -0.11905,-0.119 0.0753,-0.3545 0,-0.5051 -0.5255,-1.051 0.0174,0.27 -0.50508,-0.2525 -0.0595,-0.06 0.0753,-0.2149 0,-0.2525 -0.15058,-0.075 -0.35449,0.075 -0.50508,0 -0.15058,-0.075 0.0753,-0.3545 0,-0.5051 -0.5255,-1.051 0.0174,0.27 -0.50507,-0.2525 -0.0691,-0.069 0.0685,-0.8732 0,-1.0102 -0.0532,-0.1065 -0.1993,-0.1461 -0.25254,-0.2525 -0.0376,-0.075 0.0376,-0.1773 0,-0.2526 -0.10648,-0.2129 -0.3986,-0.2921 -0.50508,-0.5051 -0.0376,-0.075 0.0595,-0.193 0,-0.2525 -0.0595,-0.06 -0.19301,0.059 -0.25253,0 -0.11905,-0.119 0.11904,-0.386 0,-0.5051 -0.0595,-0.06 -0.19302,0.06 -0.25254,0 -0.11905,-0.119 0.0753,-0.3545 0,-0.505 -0.0532,-0.1065 -0.1993,-0.1461 -0.25254,-0.2526 -0.0376,-0.075 0.0595,-0.193 0,-0.2525 -0.0595,-0.06 -0.19301,0.059 -0.25254,0 -0.11905,-0.1191 0.0753,-0.3545 0,-0.5051 -0.0532,-0.1065 -0.1993,-0.1461 -0.25254,-0.2525 -0.0376,-0.075 0.0376,-0.1773 0,-0.2526 -0.5255,-1.051 0.0174,0.27 -0.50507,-0.2525 -0.12627,-0.1263 0.12627,-0.6314 0,-0.7576 -0.0595,-0.059 -0.16836,0 -0.25254,0 0,-0.084 0.0595,-0.193 0,-0.2526 -0.0595,-0.06 -0.19302,0.06 -0.25254,0 -0.11905,-0.119 0.11905,-0.386 0,-0.505 -0.1331,-0.1331 -0.37198,-0.1195 -0.50508,-0.2526 -0.0595,-0.06 0.0376,-0.1772 0,-0.2525 -0.0532,-0.1065 -0.19929,-0.1461 -0.25253,-0.2526 -0.0376,-0.075 0.0376,-0.1772 0,-0.2525 -0.0532,-0.1065 -0.1993,-0.146 -0.25254,-0.2525 -0.0753,-0.1506 0.0753,-0.3545 0,-0.5051 -0.0532,-0.1065 -0.1993,-0.1461 -0.25254,-0.2525 -0.0376,-0.075 0.0595,-0.1931 0,-0.2526 -0.0595,-0.06 -0.19301,0.059 -0.25254,0 -0.12627,-0.1263 0.12627,-0.6313 0,-0.7576 -0.0595,-0.059 -0.19301,0.06 -0.25254,0 -0.0595,-0.059 0,-0.1684 0,-0.2525 -0.16836,0 -0.35449,0.075 -0.50507,0 -0.078,-0.039 0.0452,-0.6673 0,-0.7576 -0.10648,-0.213 -0.3986,-0.2922 -0.50508,-0.5051 -0.0501,-0.1002 0.0516,-0.706 0,-0.7576 -0.0595,-0.06 -0.19301,0.06 -0.25254,0 -0.0595,-0.06 0.0376,-0.1773 0,-0.2526 -0.0532,-0.1065 -0.1993,-0.146 -0.25254,-0.2525 -0.0753,-0.1506 0.11905,-0.386 0,-0.5051 -0.0595,-0.06 -0.19301,0.06 -0.25253,0 -0.0516,-0.052 0.0501,-0.6575 0,-0.7576 -0.0532,-0.1065 -0.1993,-0.1461 -0.25254,-0.2525 -0.0376,-0.075 0.0376,-0.1773 0,-0.2526 -0.0532,-0.1065 -0.1993,-0.146 -0.25254,-0.2525 -0.0501,-0.1002 0.0516,-0.706 0,-0.7576 -0.52251,-0.5225 0.0204,0.7984 -0.50508,-0.2526 -0.0501,-0.1001 0.0516,-0.706 0,-0.7576 -0.0595,-0.059 -0.16835,0 -0.25253,0 0,-0.084 0.0595,-0.193 0,-0.2525 -0.0595,-0.06 -0.2149,0.075 -0.25254,0 -0.0817,-0.1634 0.0907,-0.9195 0,-1.0102 -0.16836,-0.084 -0.33672,-0.1683 -0.50508,-0.2525 0,-0.084 0.0595,-0.193 0,-0.2526 -0.0595,-0.06 -0.21489,0.075 -0.25254,0 -0.0794,-0.1587 0.0794,-0.8514 0,-1.0101 -0.0532,-0.1065 -0.1993,-0.1461 -0.25253,-0.2525 -0.0753,-0.1506 0.0753,-0.3545 0,-0.5051 -0.0532,-0.1065 -0.1993,-0.1461 -0.25254,-0.2526 -0.17417,-0.3483 0.30583,-0.2258 -0.25254,-0.505 -0.0753,-0.038 -0.19302,0.06 -0.25254,0 -0.12627,-0.1263 0.12627,-0.6314 0,-0.7577 -0.0595,-0.059 -0.19301,0.06 -0.25254,0 -0.11904,-0.119 0.0753,-0.3544 0,-0.505 -0.0532,-0.1065 -0.1993,-0.1461 -0.25254,-0.2526 -0.0753,-0.1505 0.11905,-0.386 0,-0.505 -0.13309,-0.1331 -0.37197,-0.1195 -0.50507,-0.2526 -0.11905,-0.119 0.0753,-0.3545 0,-0.5051 -0.0532,-0.1064 -0.1993,-0.146 -0.25254,-0.2525 -0.0753,-0.1506 0.0753,-0.3545 0,-0.5051 -0.5255,-1.051 0.0174,0.27 -0.50508,-0.2525 -0.11904,-0.1191 0.0753,-0.3545 0,-0.5051 -0.0532,-0.1065 -0.19929,-0.146 -0.25253,-0.2525 -0.0753,-0.1506 0.11904,-0.3861 0,-0.5051 -0.0595,-0.06 -0.19302,0.059 -0.25254,0 -0.0595,-0.06 0.0376,-0.1772 0,-0.2525 -0.0532,-0.1065 -0.1993,-0.1461 -0.25254,-0.2526 -0.0376,-0.075 0.0376,-0.1772 0,-0.2525 -0.10648,-0.213 -0.3986,-0.2921 -0.50508,-0.5051 -0.0376,-0.075 0.0376,-0.1772 0,-0.2525 -0.0532,-0.1065 -0.1993,-0.1461 -0.25253,-0.2526 -0.311,-0.622 0.73305,0.228 -0.25254,-0.7576 -0.0595,-0.06 -0.19302,0.059 -0.25254,0 -0.11905,-0.119 0.0753,-0.3545 0,-0.5051 -0.5255,-1.051 0.0174,0.27 -0.50508,-0.2525 -0.11905,-0.119 0.11905,-0.386 0,-0.5051 -0.0595,-0.06 -0.19301,0.06 -0.25254,0 -0.0595,-0.06 0.0376,-0.1772 0,-0.2525 -0.83756,-0.8376 0.11905,0.2381 -0.25253,-0.5051 -0.52551,-1.051 0.0174,0.27 -0.50508,-0.2525 -0.0595,-0.06 0.0376,-0.1773 0,-0.2526 -0.5255,-1.051 0.0174,0.27 -0.50508,-0.2525 -0.12627,-0.1263 0.12627,-0.6313 0,-0.7576 -0.0595,-0.06 -0.19301,0.059 -0.25253,0 -0.52251,-0.5225 0.79846,0.02 -0.25254,-0.5051 -0.0753,-0.038 -0.19302,0.06 -0.25254,0 -0.11905,-0.119 0.0753,-0.3545 0,-0.5051 -0.0532,-0.1064 -0.1993,-0.146 -0.25254,-0.2525 -0.0376,-0.075 0.0376,-0.1773 0,-0.2525 -0.5255,-1.051 0.0174,0.2699 -0.50508,-0.2526 -0.11904,-0.119 0.11905,-0.386 0,-0.5051 -0.0595,-0.059 -0.19301,0.06 -0.25253,0 -0.11905,-0.119 0.0753,-0.3544 0,-0.505 -0.0532,-0.1065 -0.1993,-0.1461 -0.25254,-0.2526 -0.0376,-0.075 0.0376,-0.1772 0,-0.2525 -0.10648,-0.213 -0.3986,-0.2921 -0.50508,-0.5051 -0.0376,-0.075 0.0595,-0.193 0,-0.2525 -0.0595,-0.06 -0.19301,0.059 -0.25254,0 -0.0595,-0.06 0.0376,-0.1773 0,-0.2526 -0.0532,-0.1064 -0.19929,-0.146 -0.25253,-0.2525 -0.0753,-0.1506 0.11904,-0.386 0,-0.5051 -0.1331,-0.1331 -0.37198,-0.1194 -0.50508,-0.2525 -0.52251,-0.5225 0.79846,0.02 -0.25254,-0.5051 -0.0753,-0.038 -0.19301,0.06 -0.25254,0 -0.11904,-0.119 0.11905,-0.386 0,-0.5051 -0.0595,-0.059 -0.17724,0.038 -0.25253,0 -0.55838,-0.2792 -0.0784,-0.1567 -0.25254,-0.505 -0.5255,-1.051 0.0174,0.2699 -0.50508,-0.2526 -0.0595,-0.06 0.0595,-0.193 0,-0.2525 -0.0595,-0.059 -0.19301,0.06 -0.25254,0 -0.11904,-0.1191 0.0753,-0.3545 0,-0.5051 -0.15152,-0.303 -0.60609,-0.4546 -0.75761,-0.7576 -0.0377,-0.075 0.0376,-0.1773 0,-0.2525 -0.0532,-0.1065 -0.1993,-0.1461 -0.25254,-0.2526 -0.0376,-0.075 0.0595,-0.193 0,-0.2525 -0.0595,-0.06 -0.19301,0.06 -0.25254,0 -0.0595,-0.06 0.0376,-0.1773 0,-0.2526 -0.0532,-0.1064 -0.1993,-0.146 -0.25254,-0.2525 -0.0376,-0.075 0.0376,-0.1772 0,-0.2525 -0.10648,-0.213 -0.39859,-0.2922 -0.50507,-0.5051 -0.0376,-0.075 0,-0.1684 0,-0.2526 -0.0842,-0.084 -0.1993,-0.146 -0.25254,-0.2525 -0.0376,-0.075 0.0376,-0.1772 0,-0.2525 -0.0242,-0.048 -0.96181,-0.986 -1.01015,-1.0102 -0.0753,-0.038 -0.19302,0.06 -0.25254,0 -0.11905,-0.119 0.0753,-0.3545 0,-0.5051 -0.0532,-0.1064 -0.1993,-0.146 -0.25254,-0.2525 -0.0376,-0.075 0.0376,-0.1772 0,-0.2525 -0.10648,-0.213 -0.3986,-0.2922 -0.50508,-0.5051 -0.0753,-0.1506 0.15059,-0.4298 0,-0.5051 -0.15058,-0.075 -0.35449,0.075 -0.50507,0 -0.0798,-0.04 0.11468,-0.8955 0,-1.0101 -0.11905,-0.1191 -0.35449,0.075 -0.50508,0 -0.10483,-0.053 0.0882,-0.6695 0,-0.7577 -0.1331,-0.1331 -0.37198,-0.1194 -0.50507,-0.2525 -0.11905,-0.119 0.15058,-0.4298 0,-0.5051 -0.15059,-0.075 -0.3545,0.075 -0.50508,0 -0.078,-0.039 0.0452,-0.6672 0,-0.7576 -0.10648,-0.2129 -0.3986,-0.2921 -0.50508,-0.5051 -0.0376,-0.075 0.0376,-0.1772 0,-0.2525 -0.0532,-0.1065 -0.1993,-0.1461 -0.25254,-0.2525 -0.0376,-0.075 0.0595,-0.1931 0,-0.2526 -0.13309,-0.1331 -0.37197,-0.1194 -0.50507,-0.2525 -0.0595,-0.06 0.0595,-0.193 0,-0.2526 -0.0595,-0.06 -0.19302,0.06 -0.25254,0 -0.11905,-0.119 0.11905,-0.386 0,-0.505 -0.0595,-0.06 -0.19301,0.06 -0.25254,0 -0.11905,-0.1191 0.11905,-0.3861 0,-0.5051 -0.52251,-0.5225 0.0204,0.7985 -0.50507,-0.2525 -0.0753,-0.1506 0.0753,-0.3545 0,-0.5051 -0.52551,-1.051 0.0174,0.27 -0.50508,-0.2526 -0.0595,-0.059 0.0377,-0.1772 0,-0.2525 -0.0532,-0.1065 -0.1993,-0.1461 -0.25254,-0.2525 -0.0376,-0.075 0.0376,-0.1773 0,-0.2526 -0.0532,-0.1064 -0.1993,-0.146 -0.25254,-0.2525 -0.0376,-0.075 0.0595,-0.193 0,-0.2525 -0.0595,-0.06 -0.19301,0.06 -0.25253,0 -0.0595,-0.06 0.0376,-0.1773 0,-0.2526 -0.0532,-0.1065 -0.1993,-0.146 -0.25254,-0.2525 -0.17417,-0.3484 0.30583,-0.2259 -0.25254,-0.5051 -0.0753,-0.038 -0.19302,0.06 -0.25254,0 -0.11905,-0.119 0.0753,-0.3545 0,-0.5051 -0.0532,-0.1065 -0.1993,-0.146 -0.25254,-0.2525 -0.0376,-0.075 0.0595,-0.193 0,-0.2526 -0.0595,-0.06 -0.19301,0.06 -0.25254,0 -0.0595,-0.06 0.0377,-0.1772 0,-0.2525 -0.0532,-0.1065 -0.19929,-0.146 -0.25253,-0.2525 -0.0753,-0.1506 0.0753,-0.3545 0,-0.5051 -0.0532,-0.1065 -0.1993,-0.1461 -0.25254,-0.2525 -0.0753,-0.1506 0.0753,-0.3545 0,-0.5051 -0.5255,-1.051 0.0174,0.27 -0.50508,-0.2526 -0.11905,-0.119 0.0753,-0.3544 0,-0.505 -0.83756,-0.8376 0.11905,0.2381 -0.25254,-0.5051 -0.0674,-0.1347 -0.4377,-0.3703 -0.50507,-0.5051 -0.0452,-0.09 0.078,-0.7186 0,-0.7576 -0.15059,-0.075 -0.35449,0.075 -0.50508,0 -0.031,-0.015 0.0311,-0.9946 0,-1.0102 -0.15058,-0.075 -0.35449,0.075 -0.50507,0 -0.15059,-0.075 0.15058,-0.4297 0,-0.505 -0.15059,-0.075 -0.3545,0.075 -0.50508,0 -0.15059,-0.075 0.0753,-0.3545 0,-0.5051 -0.5255,-1.051 0.0174,0.27 -0.50508,-0.2525 -0.0595,-0.06 0.0376,-0.1773 0,-0.2526 -0.10648,-0.2129 -0.39859,-0.2921 -0.50507,-0.5051 -0.0376,-0.075 0.0376,-0.1772 0,-0.2525 -0.0335,-0.067 -0.69057,-0.7241 -0.75762,-0.7576 -0.0753,-0.038 -0.19301,0.06 -0.25254,0 -0.11904,-0.1191 0.11905,-0.386 0,-0.5051 -0.0595,-0.06 -0.19301,0.06 -0.25253,0 -0.0595,-0.06 0.0376,-0.1772 0,-0.2525 -0.15153,-0.3031 -0.6061,-0.4546 -0.75762,-0.7576 -0.0376,-0.075 0.0376,-0.1773 0,-0.2526 -0.40421,-0.8084 -0.10086,0.3034 -0.50507,-0.5051 -0.0376,-0.075 0.0595,-0.193 0,-0.2525 -0.1331,-0.1331 -0.37198,-0.1194 -0.50508,-0.2525 -0.0595,-0.06 0.0376,-0.1773 0,-0.2526 -0.15152,-0.303 -0.60609,-0.4545 -0.75762,-0.7576 -0.0376,-0.075 0.0595,-0.193 0,-0.2525 -0.0595,-0.06 -0.19301,0.059 -0.25253,0 -0.1331,-0.1331 -0.16836,-0.3367 -0.25254,-0.5051 -0.0842,-0.1684 -0.19302,-0.3265 -0.25254,-0.5051 -0.0266,-0.08 0.0376,-0.1772 0,-0.2525 -0.0532,-0.1065 -0.1993,-0.1461 -0.25254,-0.2525 -0.0376,-0.075 0.0595,-0.1931 0,-0.2526 -0.52251,-0.5225 0.0204,0.7985 -0.50507,-0.2525 -0.0376,-0.075 0.0595,-0.193 0,-0.2526 -0.52251,-0.5225 0.0204,0.7985 -0.50508,-0.2525 -0.0452,-0.09 0.078,-0.7186 0,-0.7576 -0.15059,-0.075 -0.35449,0.075 -0.50508,0 -0.078,-0.039 0.0452,-0.6673 0,-0.7576 -0.10648,-0.213 -0.39859,-0.2921 -0.50507,-0.5051 -0.0376,-0.075 0.0595,-0.193 0,-0.2525 -0.0595,-0.06 -0.19302,0.06 -0.25254,0 -0.11905,-0.1191 0.11905,-0.3861 0,-0.5051 -0.52251,-0.5225 0.0204,0.7984 -0.50508,-0.2526 -0.10101,-0.202 0.10102,-0.5555 0,-0.7576 -0.5255,-1.051 0.0174,0.27 -0.50507,-0.2525 -2.4e-4,-3e-4 3.8e-4,-0.7565 0,-0.7576 -0.0753,-0.2259 -0.3986,-0.2921 -0.50508,-0.5051 -0.0753,-0.1506 0.0753,-0.3545 0,-0.5051 -0.5255,-1.051 0.0174,0.27 -0.50508,-0.2525 -0.11904,-0.1191 0.11905,-0.386 0,-0.5051 -0.1331,-0.1331 -0.37197,-0.1194 -0.50507,-0.2525 -0.11905,-0.1191 0.15058,-0.4298 0,-0.5051 -0.15059,-0.075 -0.35449,0.075 -0.50508,0 -0.15058,-0.075 0.11905,-0.386 0,-0.5051 -0.1331,-0.1331 -0.37198,-0.1194 -0.50508,-0.2525 -0.11904,-0.1191 0.11905,-0.3861 0,-0.5051 -0.0595,-0.059 -0.17724,0.038 -0.25253,0 -0.51076,-0.2554 -0.081,-0.5861 -0.25254,-0.7576 -0.1331,-0.1331 -0.37198,-0.1195 -0.50508,-0.2526 -0.11905,-0.119 0.0753,-0.3544 0,-0.505 -0.5255,-1.051 0.0174,0.2699 -0.50507,-0.2526 -0.0595,-0.06 0.0376,-0.1772 0,-0.2525 -0.52551,-1.051 0.0174,0.27 -0.50508,-0.2525 -0.0595,-0.06 0.0595,-0.1931 0,-0.2526 -0.0595,-0.059 -0.19301,0.06 -0.25254,0 -0.11905,-0.119 0.11905,-0.386 0,-0.5051 -0.1331,-0.1331 -0.37198,-0.1194 -0.50507,-0.2525 -0.11905,-0.119 0.11904,-0.386 0,-0.5051 -0.61337,-0.6133 -0.37084,0.075 -0.75762,-0.505 -0.10441,-0.1567 -0.14813,-0.3485 -0.25254,-0.5051 -0.066,-0.099 -0.1993,-0.1461 -0.25254,-0.2526 -0.0376,-0.075 0.0595,-0.193 0,-0.2525 -0.13309,-0.1331 -0.37197,-0.1194 -0.50507,-0.2525 -0.0595,-0.06 0.0376,-0.1773 0,-0.2526 -0.0532,-0.1065 -0.1993,-0.146 -0.25254,-0.2525 -0.0376,-0.075 0.0376,-0.1773 0,-0.2526 -0.0532,-0.1064 -0.1993,-0.146 -0.25254,-0.2525 -0.0753,-0.1506 0.15059,-0.4298 0,-0.5051 -0.15058,-0.075 -0.35449,0.075 -0.50507,0 -0.0753,-0.038 0.0376,-0.1772 0,-0.2525 -0.0532,-0.1065 -0.1993,-0.1461 -0.25254,-0.2525 -0.0376,-0.075 0.0376,-0.1773 0,-0.2526 -0.0532,-0.1065 -0.1993,-0.146 -0.25254,-0.2525 -0.0376,-0.075 0.0376,-0.1773 0,-0.2526 -0.10648,-0.2129 -0.3986,-0.2921 -0.50508,-0.505 -0.0376,-0.075 0.0376,-0.1773 0,-0.2526 -0.0674,-0.1347 -0.4377,-0.3703 -0.50507,-0.505 -0.0377,-0.075 0.0595,-0.1931 0,-0.2526 -0.0595,-0.06 -0.19302,0.06 -0.25254,0 -0.11905,-0.119 0.11905,-0.386 0,-0.5051 -0.0595,-0.059 -0.19302,0.06 -0.25254,0 -0.0595,-0.059 0.0376,-0.1772 0,-0.2525 -0.10648,-0.213 -0.3986,-0.2921 -0.50508,-0.5051 -0.0376,-0.075 0.0376,-0.1772 0,-0.2525 -0.33684,-0.6737 -0.16823,0.1686 -0.50507,-0.5051 -0.0376,-0.075 0.0595,-0.193 0,-0.2525 -0.1331,-0.1331 -0.37198,-0.1195 -0.50508,-0.2526 -0.52251,-0.5225 0.79847,0.021 -0.25254,-0.505 -0.0753,-0.038 -0.19301,0.06 -0.25253,0 -0.11905,-0.1191 0.0753,-0.3545 0,-0.5051 -0.52551,-1.051 0.0174,0.27 -0.50508,-0.2526 -0.0595,-0.06 0.0376,-0.1772 0,-0.2525 -0.0532,-0.1065 -0.16836,-0.1684 -0.25254,-0.2525 -0.14853,-0.1486 -0.95168,-0.8932 -1.01015,-1.0102 -0.0376,-0.075 0.0376,-0.1772 0,-0.2525 -0.0532,-0.1065 -0.16836,-0.1684 -0.25254,-0.2526 -0.0842,-0.084 -0.14606,-0.1993 -0.25254,-0.2525 -0.0753,-0.038 -0.19301,0.06 -0.25254,0 -0.0595,-0.06 0.0595,-0.193 0,-0.2525 -0.0595,-0.06 -0.19301,0.06 -0.25253,0 -0.0595,-0.06 0.0376,-0.1773 0,-0.2526 -0.0532,-0.1065 -0.1993,-0.146 -0.25254,-0.2525 -0.0377,-0.075 0.0753,-0.2149 0,-0.2526 -0.15059,-0.075 -0.35449,0.075 -0.50508,0 -0.0753,-0.038 0.0376,-0.1772 0,-0.2525 -0.5255,-1.051 0.0174,0.27 -0.50507,-0.2525 -0.0595,-0.06 0.0376,-0.1773 0,-0.2526 -0.52551,-1.051 0.0174,0.27 -0.50508,-0.2525 -0.0595,-0.059 0.0595,-0.193 0,-0.2525 -0.0595,-0.06 -0.19302,0.059 -0.25254,0 -0.0595,-0.06 0.0376,-0.1773 0,-0.2526 -0.5255,-1.051 0.0174,0.27 -0.50508,-0.2525 -0.0595,-0.06 0.0595,-0.193 0,-0.2526 -0.0595,-0.06 -0.19301,0.06 -0.25253,0 -0.11905,-0.119 0.15058,-0.4297 0,-0.505 -0.15059,-0.075 -0.3545,0.075 -0.50508,0 -0.0753,-0.038 0.0595,-0.193 0,-0.2526 -0.0595,-0.06 -0.19301,0.06 -0.25254,0 -0.0595,-0.06 0.0595,-0.193 0,-0.2525 -0.0595,-0.06 -0.19301,0.06 -0.25254,0 -0.0595,-0.06 0.0595,-0.193 0,-0.2525 -0.33671,-0.3368 -0.25253,0.4208 -0.25253,-0.2526"
       id="path3147"
       inkscape:connector-curvature="0"
       transform="translate(0,-1107.6378)" />
    <path
       sodipodi:type="arc"
       style="fill:#a0892c;fill-opacity:1;stroke:#000000;stroke-width:2;stroke-miterlimit:4;stroke-dasharray:none;stroke-dashoffset:0"
       id="path3137"
       sodipodi:cx="885.71429"
       sodipodi:cy="2002.8572"
       sodipodi:rx="28.571428"
       sodipodi:ry="25.714285"
       d="m 914.28572,2002.8572 a 28.571428,25.714285 0 1 1 -57.14285,0 28.571428,25.714285 0 1 1 57.14285,0 z"
       transform="translate(100,-1084.7807)" />
    <path
       sodipodi:type="arc"
       style="fill:#c8c4b7;fill-opacity:1;stroke:#000000;stroke-width:2;stroke-miterlimit:4;stroke-dasharray:none;stroke-dashoffset:0"
       id="path3139"
       sodipodi:cx="951.42859"
       sodipodi:cy="1942.8572"
       sodipodi:rx="14.285714"
       sodipodi:ry="14.285714"
       d="m 965.7143,1942.8572 a 14.285714,14.285714 0 1 1 -28.57143,0 14.285714,14.285714 0 1 1 28.57143,0 z"
       transform="translate(77.142857,-1070.4949)" />
    <path
       style="fill:none;stroke:#000000;stroke-width:1px;stroke-linecap:butt;stroke-linejoin:miter;stroke-opacity:1"
       d="m 985.89286,2028.2143 c 0.23809,0.059 0.47619,0.119 0.71428,0.1786 0.0595,0.059 0.10328,0.1409 0.17858,0.1785 0.0532,0.027 0.13648,-0.042 0.17857,0 0.0421,0.042 -0.0421,0.1365 0,0.1786 0.0421,0.042 0.13648,-0.042 0.17857,0 0.0421,0.042 -0.0421,0.1365 0,0.1786 0.0421,0.042 0.12533,-0.027 0.17857,0 0.39483,0.1974 0.0554,0.1108 0.17857,0.3571 0.0753,0.1506 0.26376,0.2171 0.35714,0.3572 0.0738,0.1107 0.10475,0.2464 0.17858,0.3571 0.0467,0.07 0.15195,0.099 0.17857,0.1786 0.0376,0.1129 -0.066,0.2581 0,0.3571 0.0738,0.1108 0.28331,0.068 0.35714,0.1786 0.066,0.099 -0.0376,0.2442 0,0.3571 0.0266,0.08 0.13188,0.1086 0.17857,0.1786 0.14766,0.2215 0.20948,0.4928 0.35714,0.7143 0.0467,0.07 0.15196,0.099 0.17858,0.1786 0.0376,0.1129 -0.0376,0.2442 0,0.3571 0.0266,0.08 0.14092,0.1033 0.17857,0.1786 0.0266,0.053 -0.0188,0.1221 0,0.1785 0.0421,0.1263 0.13648,0.2309 0.17857,0.3572 0.0188,0.056 -0.0188,0.1221 0,0.1786 0.0421,0.1262 0.13648,0.2308 0.17857,0.3571 0.0188,0.056 -0.0266,0.1253 0,0.1786 0.0376,0.075 0.15195,0.099 0.17857,0.1785 0.0376,0.113 -0.0289,0.2417 0,0.3572 0.0968,0.3872 0.43892,0.5057 0.53572,0.8928 0.0289,0.1155 -0.0532,0.2507 0,0.3572 0.0266,0.053 0.12904,-0.033 0.17857,0 0.14008,0.093 0.27052,0.2128 0.35714,0.3571 0.0968,0.1614 0.10866,0.361 0.17857,0.5357 0.0989,0.2472 0.25828,0.4672 0.35714,0.7143 0.0699,0.1748 0.0944,0.3674 0.17858,0.5357 0.27228,0.5446 0.14156,-0.3266 0.35714,0.5358 0.0289,0.1155 -0.066,0.258 0,0.3571 0.0738,0.1107 0.26303,0.084 0.35714,0.1786 0.0421,0.042 -0.0266,0.1253 0,0.1785 0.0753,0.1506 0.28185,0.2066 0.35714,0.3572 0.0532,0.1065 -0.0842,0.2729 0,0.3571 0.0421,0.042 0.13649,-0.042 0.17858,0 0.0842,0.084 -0.0532,0.2507 0,0.3572 0.0376,0.075 0.14092,0.1033 0.17857,0.1785 0.0266,0.053 -0.0266,0.1254 0,0.1786 0.0376,0.075 0.14092,0.1033 0.17857,0.1786 0.0397,0.079 -0.0272,0.6326 0,0.7143 0.0266,0.08 0.14092,0.1033 0.17857,0.1785 0.0266,0.053 -0.0266,0.1254 0,0.1786 0.0753,0.1506 0.3039,0.1974 0.35714,0.3572 0.0376,0.1129 -0.0532,0.2506 0,0.3571 0.0266,0.053 0.13649,-0.042 0.17857,0 0.0941,0.094 0.10475,0.2464 0.17858,0.3571 0.0467,0.07 0.14092,0.1033 0.17857,0.1786 0.0266,0.053 -0.0266,0.1253 0,0.1786 0.0376,0.075 0.15195,0.099 0.17857,0.1786 0.0376,0.1129 0,0.2381 0,0.3571 0,0.06 -0.0266,0.1253 0,0.1786 0.27228,0.5445 0.14156,-0.3266 0.35714,0.5357 0.0289,0.1155 -0.0376,0.2442 0,0.3571 0.0266,0.08 0.15195,0.099 0.17857,0.1786 0.0376,0.1129 -0.0289,0.2416 0,0.3571 0.0646,0.2583 0.29258,0.4561 0.35715,0.7143 0.0289,0.1155 -0.0289,0.2417 0,0.3572 0.0323,0.1291 0.11904,0.2381 0.17857,0.3571 0.0595,0.1191 0.10474,0.2464 0.17857,0.3572 0.0467,0.07 0.13188,0.1085 0.17857,0.1785 0.0738,0.1108 0.11905,0.2381 0.17857,0.3572 0.50587,1.0117 -0.0666,-0.2662 0.17857,0.7143 0.0323,0.1291 0.11905,0.2381 0.17857,0.3571 0.0595,0.119 0.10475,0.2464 0.17858,0.3571 0.0467,0.07 0.15815,0.097 0.17857,0.1786 0.0433,0.1733 -0.0433,0.3625 0,0.5357 0.0204,0.082 0.13187,0.1086 0.17857,0.1786 0.27802,0.417 0.43626,1.0115 0.71428,1.4286 0.0467,0.07 0.15196,0.099 0.17858,0.1785 0.0376,0.113 -0.0289,0.2417 0,0.3572 0.0646,0.2582 0.27296,0.4617 0.35714,0.7143 0.17719,0.5315 -0.42283,-0.3664 0.17857,0.5357 0.0467,0.07 0.15195,0.099 0.17857,0.1786 0.0376,0.1129 -0.0376,0.2442 0,0.3571 0.0266,0.08 0.14093,0.1033 0.17857,0.1786 0.0266,0.053 -0.0266,0.1253 0,0.1785 0.0376,0.075 0.14093,0.1033 0.17857,0.1786 0.0532,0.1065 -0.0532,0.2507 0,0.3572 0.0376,0.075 0.14093,0.1032 0.17858,0.1785 0.17857,0.3572 -0.35715,0 0,0.5357 0.0738,0.1108 0.26302,0.084 0.35714,0.1786 0.043,0.043 -0.043,0.6713 0,0.7143 0.0941,0.094 0.28331,0.068 0.35714,0.1786 0.066,0.099 -0.0376,0.2442 0,0.3571 0.027,0.08 0.152,0.099 0.1786,0.1786 0.038,0.1129 -0.029,0.2416 0,0.3571 0.032,0.1292 0.1365,0.2309 0.1785,0.3572 0.019,0.056 -0.027,0.1253 0,0.1785 0.075,0.1506 0.2819,0.2066 0.3572,0.3572 0.027,0.053 -0.027,0.1253 0,0.1786 0.075,0.1505 0.3039,0.1974 0.3571,0.3571 0.038,0.1129 -0.029,0.2416 0,0.3571 0.032,0.1292 0.1365,0.2309 0.1786,0.3572 0.019,0.056 -0.027,0.1253 0,0.1786 0.4086,0.8172 -0.074,-0.7578 0.3571,0.5357 0.019,0.056 -0.027,0.1253 0,0.1785 0.075,0.1506 0.2819,0.2066 0.3572,0.3572 0.027,0.053 0,0.119 0,0.1786 0,0.119 -0.038,0.2442 0,0.3571 0.053,0.1597 0.2637,0.2171 0.3571,0.3571 0.52,0.78 -0.079,-0.059 0.1786,0.7143 0.027,0.08 0.119,0.1191 0.1786,0.1786 0,0.119 -0.029,0.2416 0,0.3571 -0.1077,0.3232 0.2892,0.3322 0.3571,0.5358 0.038,0.1129 -0.023,0.2404 0,0.3571 0.059,0.1786 0.1191,0.3571 0.1786,0.5357 0.06,0.06 0.1519,0.099 0.1786,0.1786 0.038,0.1129 -0.038,0.2442 0,0.3571 0.027,0.08 0.119,0.1191 0.1785,0.1786 0,0.119 -0.029,0.2416 0,0.3571 0.065,0.2583 0.2926,0.4561 0.3572,0.7143 0.029,0.1155 -0.029,0.2417 0,0.3572 0.032,0.1291 0.1524,0.2266 0.1785,0.3571 0.035,0.1751 -0.066,0.3699 0,0.5357 0.4744,1.1859 0.2636,-0.3742 0.5358,0.7143 0.029,0.1155 -0.029,0.2417 0,0.3572 0.032,0.1291 0.1462,0.228 0.1785,0.3571 0.029,0.1155 -0.038,0.2442 0,0.3571 0.053,0.1598 0.2819,0.2066 0.3572,0.3572 0.053,0.1065 -0.053,0.2506 0,0.3571 0.038,0.075 0.1409,0.1033 0.1785,0.1786 0.027,0.053 -0.042,0.1365 0,0.1786 0.042,0.042 0.1365,-0.042 0.1786,0 0.089,0.089 -0.089,0.4464 0,0.5357 0.042,0.042 0.1365,-0.042 0.1786,0 0.1194,0.1194 -0.1194,0.2377 0,0.3571 0.042,0.042 0.1365,-0.042 0.1786,0 0.089,0.089 -0.089,0.4465 0,0.5357 0.042,0.042 0.1364,-0.042 0.1785,0 0.036,0.036 -0.035,0.465 0,0.5358 0.038,0.075 0.141,0.1032 0.1786,0.1785 0.027,0.053 -0.042,0.1365 0,0.1786 0.042,0.042 0.1365,-0.042 0.1786,0 0.042,0.042 0,0.119 0,0.1786 0,0.1496 -0.038,0.8169 0,0.8928 0.027,0.053 0.1365,-0.042 0.1785,0 0.042,0.042 -0.027,0.1254 0,0.1786 0.038,0.075 0.141,0.1033 0.1786,0.1786 0.027,0.053 -0.042,0.1365 0,0.1785 0.042,0.042 0.1365,-0.042 0.1786,0 0.059,0.059 -0.043,0.5851 0,0.7143 0.027,0.08 0.1519,0.099 0.1786,0.1786 0.038,0.1129 -0.038,0.2442 0,0.3571 0.027,0.08 0.1409,0.1033 0.1785,0.1786 0.027,0.053 -0.042,0.1365 0,0.1786 0.042,0.042 0.152,-0.053 0.1786,0 0.053,0.1065 -0.053,0.2506 0,0.3571 0.027,0.053 0.1365,-0.042 0.1786,0 0.084,0.084 -0.053,0.2507 0,0.3572 0.038,0.075 0.1409,0.1033 0.1785,0.1785 0.027,0.053 0,0.1191 0,0.1786 0,0.1191 -0.038,0.2442 0,0.3572 0.053,0.1597 0.2638,0.217 0.3572,0.3571 0.1476,0.2215 0.2095,0.4928 0.3571,0.7143 0.047,0.07 0.152,0.099 0.1786,0.1786 0,1.0119 -0.119,0.06 0.1786,0.3571 0.084,0.084 -0.084,0.273 0,0.3571 0.042,0.042 0.1365,-0.042 0.1785,0 0.084,0.084 -0.084,0.273 0,0.3572 0.042,0.042 0.1365,-0.042 0.1786,0 0.042,0.042 -0.042,0.1365 0,0.1786 0.042,0.042 0.1365,-0.042 0.1786,0 0.084,0.084 -0.084,0.2729 0,0.3571 0.042,0.042 0.1365,-0.042 0.1786,0 0.089,0.089 -0.089,0.4464 0,0.5357 0.042,0.042 0.1364,-0.042 0.1785,0 0.042,0.042 -0.042,0.1365 0,0.1786 0.042,0.042 0.1365,-0.042 0.1786,0 0.084,0.084 -0.053,0.2506 0,0.3571 0.038,0.075 0.1409,0.1033 0.1786,0.1786 0.053,0.1065 -0.084,0.273 0,0.3571 0.042,0.042 0.1365,-0.042 0.1785,0 0.084,0.084 -0.084,0.273 0,0.3572 0.042,0.042 0.1365,-0.042 0.1786,0 0.084,0.084 -0.084,0.2729 0,0.3571 0.042,0.042 0.1365,-0.042 0.1786,0 0.037,0.037 -0.035,0.4649 0,0.5357 0.038,0.075 0.1409,0.1033 0.1786,0.1786 0.048,0.097 -0.049,0.6654 0,0.7143 0.042,0.042 0.1364,-0.042 0.1785,0 0.042,0.042 0,0.119 0,0.1786 0,0.059 0,0.119 0,0.1785 0,0.3572 0,0.7143 0,1.0715 0,0.119 -0.053,0.2506 0,0.3571 0.027,0.053 0.1365,-0.042 0.1786,0 0.043,0.043 -0.043,0.6713 0,0.7143 0.042,0.042 0.152,-0.053 0.1786,0 0.056,0.1122 -0.056,0.602 0,0.7143 0.038,0.075 0.1409,0.1033 0.1785,0.1786 0.056,0.1122 -0.056,0.602 0,0.7142 0.2207,0.4414 0.1786,-0.062 0.1786,0.3572 0,0.043 -0.01,0.53 0,0.5357 0.042,0.042 0.1365,-0.042 0.1786,0 0.089,0.089 -0.089,0.4464 0,0.5357 0.042,0.042 0.1365,-0.042 0.1786,0 0.084,0.084 -0.053,0.2507 0,0.3572 0.5922,0.5922 -0.084,-0.1684 0.1785,0.3571 0.038,0.075 0.141,0.1033 0.1786,0.1786 0.053,0.1065 -0.084,0.2729 0,0.3571 0.042,0.042 0.1365,-0.042 0.1786,0 0.042,0.042 -0.027,0.1253 0,0.1786 0.038,0.075 0.1409,0.1033 0.1785,0.1786 0.053,0.1064 -0.084,0.2729 0,0.3571 0.042,0.042 0.1365,-0.042 0.1786,0 0.084,0.084 -0.053,0.2507 0,0.3571 0.038,0.075 0.1409,0.1033 0.1786,0.1786 0.027,0.053 -0.042,0.1365 0,0.1786 0.042,0.042 0.1365,-0.042 0.1786,0 0.01,0.01 0,0.4924 0,0.5357 0,0.4188 -0.042,-0.084 0.1785,0.3571 0.056,0.1123 -0.056,0.6021 0,0.7143 0.027,0.053 0.1365,-0.042 0.1786,0 0.042,0.042 -0.027,0.1254 0,0.1786 0.038,0.075 0.1409,0.1033 0.1786,0.1786 0.027,0.053 0,0.119 0,0.1785 0,0.1191 -0.038,0.2442 0,0.3572 0.027,0.08 0.1409,0.1033 0.1785,0.1786 0.053,0.1064 -0.038,0.2442 0,0.3571 0.4312,1.2935 -0.051,-0.2815 0.3572,0.5357 0.035,0.071 -0.036,0.4992 0,0.5357 0.042,0.042 0.1519,-0.053 0.1786,0 0.053,0.1065 -0.038,0.2442 0,0.3572 0.027,0.08 0.1409,0.1033 0.1785,0.1785 0.08,0.1598 -0.08,0.376 0,0.5358 0.027,0.053 0.152,-0.053 0.1786,0 0.071,0.1428 -0.071,0.3928 0,0.5357 0.038,0.075 0.1409,0.1033 0.1786,0.1785 0.027,0.053 -0.027,0.1254 0,0.1786 0.038,0.075 0.1409,0.1033 0.1785,0.1786 0.027,0.053 -0.019,0.1221 0,0.1786 0.042,0.1262 0.1365,0.2308 0.1786,0.3571 0.019,0.057 -0.027,0.1253 0,0.1786 0.038,0.075 0.1409,0.1033 0.1786,0.1785 0.027,0.053 0,0.1191 0,0.1786 0,0.1191 -0.038,0.2442 0,0.3572 0.027,0.08 0.1319,0.1085 0.1786,0.1785 0.074,0.1108 0.1364,0.2309 0.1785,0.3572 0.038,0.1129 -0.053,0.2506 0,0.3571 0.038,0.075 0.141,0.1033 0.1786,0.1786 0.027,0.053 -0.042,0.1365 0,0.1786 0.042,0.042 0.152,-0.053 0.1786,0 0.055,0.1096 -0.055,0.7821 0,0.8928 0.038,0.075 0.1409,0.1033 0.1785,0.1786 0.027,0.053 -0.027,0.1253 0,0.1786 0.038,0.075 0.141,0.1032 0.1786,0.1785 0.056,0.1123 -0.056,0.6021 0,0.7143 0.027,0.053 0.152,-0.053 0.1786,0 0.053,0.1065 -0.038,0.2442 0,0.3572 0.027,0.08 0.1409,0.1032 0.1786,0.1785 0.027,0.053 0,0.1191 0,0.1786 0,0.119 -0.038,0.2442 0,0.3571 0.027,0.08 0.1519,0.099 0.1785,0.1786 0.038,0.113 -0.038,0.2442 0,0.3572 0.027,0.08 0.152,0.099 0.1786,0.1785 0.075,0.2259 -0.075,0.4884 0,0.7143 0.027,0.08 0.152,0.099 0.1786,0.1786 0.056,0.1694 -0.056,0.3663 0,0.5357 0.042,0.1263 0.1365,0.2309 0.1785,0.3571 0.05,0.1497 -0.059,0.596 0,0.7143 0.038,0.075 0.141,0.1033 0.1786,0.1786 0.027,0.053 -0.019,0.1221 0,0.1786 0.042,0.1262 0.1365,0.2308 0.1786,0.3571 0.019,0.057 -0.027,0.1253 0,0.1786 0.038,0.075 0.1519,0.099 0.1786,0.1786 0.027,0.082 -0.04,0.6348 0,0.7142 0.038,0.075 0.1409,0.1033 0.1785,0.1786 0.053,0.1065 -0.084,0.273 0,0.3572 0.042,0.042 0.1365,-0.042 0.1786,0 0.042,0.042 -0.027,0.1253 0,0.1785 0.038,0.075 0.1409,0.1033 0.1786,0.1786 0.071,0.1429 -0.072,0.3929 0,0.5357 0.038,0.075 0.1409,0.1033 0.1785,0.1786 0.024,0.047 0,0.6209 0,0.7143 0,0.6547 0,1.3095 0,1.9643 0,0.043 -0.01,0.5299 0,0.5357 0.042,0.042 0.1365,-0.042 0.1786,0 0.042,0.042 -0.042,0.1365 0,0.1785 0.042,0.042 0.1365,-0.042 0.1786,0 0.042,0.042 -0.042,0.1365 0,0.1786 0.042,0.042 0.119,0 0.1786,0 0.059,2.381 0.06,4.7641 0.1785,7.1429 0,0.059 0.1365,-0.042 0.1786,0 0.042,0.042 -0.042,0.1365 0,0.1785 0.042,0.042 0.1365,-0.042 0.1786,0 0.042,0.042 -0.042,0.1365 0,0.1786 0.084,0.084 0.2729,-0.084 0.3571,0 0.084,0.084 -0.084,0.273 0,0.3572 0.042,0.042 0.1365,-0.042 0.1786,0 0.042,0.042 0.06,0.1785 0,0.1785 -0.059,0 0,-0.2381 0,-0.1785 0,0.119 -0.053,0.2506 0,0.3571 0.01,0.019 0.6773,-0.037 0.7143,0 0.043,0.043 -0.043,0.6713 0,0.7143 0.042,0.042 0.1365,-0.042 0.1785,0 0.042,0.042 -0.042,0.1365 0,0.1786 0.042,0.042 0.1786,-0.06 0.1786,0 0,0.06 -0.119,0 -0.1786,0"
       id="path3149"
       inkscape:connector-curvature="0"
       transform="translate(0,-1107.6378)" />
    <text
       xml:space="preserve"
       style="font-size:64px;font-style:normal;font-variant:normal;font-weight:normal;font-stretch:normal;line-height:125%;letter-spacing:0px;word-spacing:0px;fill:#ff0000;fill-opacity:1;stroke:none;font-family:Noto Sans Tai Viet;-inkscape-font-specification:Noto Sans Tai Viet"
       x="57.142857"
       y="134.28571"
       id="text3155"
       sodipodi:linespacing="125%"
       transform="translate(0,-1107.6378)"><tspan
         sodipodi:role="line"
         id="tspan3157"
         x="57.142857"
         y="134.28571">Omega GFX Init</tspan></text>
  </g>
</svg>
